<svg xmlns="http://www.w3.org/2000/svg" version="1.1" xmlns:xlink="http://www.w3.org/1999/xlink" xmlns:svgjs="http://svgjs.com/svgjs" viewBox="0 0 140 140" width="140" height="140"><g transform="matrix(5.833333333333333,0,0,5.833333333333333,0,0)"><path d="M1.5 4.5L22.5 4.5" fill="none" stroke="#ffffff" stroke-linecap="round" stroke-linejoin="round" stroke-width="1.5"></path><path d="M14.25,1.5H9.75A1.5,1.5,0,0,0,8.25,3V4.5h7.5V3A1.5,1.5,0,0,0,14.25,1.5Z" fill="none" stroke="#ffffff" stroke-linecap="round" stroke-linejoin="round" stroke-width="1.5"></path><path d="M9.75 17.25L9.75 9.75" fill="none" stroke="#ffffff" stroke-linecap="round" stroke-linejoin="round" stroke-width="1.5"></path><path d="M14.25 17.25L14.25 9.75" fill="none" stroke="#ffffff" stroke-linecap="round" stroke-linejoin="round" stroke-width="1.5"></path><path d="M18.865,21.124A1.5,1.5,0,0,1,17.37,22.5H6.631a1.5,1.5,0,0,1-1.495-1.376L3.75,4.5h16.5Z" fill="none" stroke="#ffffff" stroke-linecap="round" stroke-linejoin="round" stroke-width="1.5"></path></g></svg>