<svg xmlns="http://www.w3.org/2000/svg" width="24" height="24" style=""><rect id="backgroundrect" width="100%" height="100%" x="0" y="0" fill="none" stroke="none"/><title>189 dowload</title><g class="currentLayer" style=""><title>Layer 1</title><g id="_01_align_center" data-name="01 align center" class="" fill="#ffffff" fill-opacity="1"><path d="M12.032,19a2.991,2.991,0,0,0,2.122-.878L18.073,14.2,16.659,12.79l-3.633,3.634L13,0,11,0l.026,16.408-3.62-3.62L5.992,14.2l3.919,3.919A2.992,2.992,0,0,0,12.032,19Z" id="svg_1" fill="#ffffff" fill-opacity="1"/><path d="M22,16v5a1,1,0,0,1-1,1H3a1,1,0,0,1-1-1V16H0v5a3,3,0,0,0,3,3H21a3,3,0,0,0,3-3V16Z" id="svg_2" fill="#ffffff" fill-opacity="1"/></g></g></svg>