<svg xmlns="http://www.w3.org/2000/svg" version="1.1" xmlns:xlink="http://www.w3.org/1999/xlink" xmlns:svgjs="http://svgjs.com/svgjs" viewBox="0 0 140 140" width="140" height="140"><g transform="matrix(5.833333333333333,0,0,5.833333333333333,0,0)"><path d="M12.15,23.25H1.75a1,1,0,0,1-1-1V1.75a1,1,0,0,1,1-1h20.5a1,1,0,0,1,1,1v20.5a1,1,0,0,1-1,1h-6.1v-8.5h2.56a.5.5,0,0,0,.5-.44l.38-3a.5.5,0,0,0-.5-.56H16.15V9.69A1.69,1.69,0,0,1,17.84,8h1.81a.5.5,0,0,0,.5-.5v-3a.5.5,0,0,0-.5-.5H17.84a5.69,5.69,0,0,0-5.69,5.69v1.06H9.65a.5.5,0,0,0-.5.5v3a.5.5,0,0,0,.5.5h2.5v8.5Z" fill="none" stroke="#ffffff" stroke-linecap="round" stroke-linejoin="round" stroke-width="1.5"></path></g></svg>