<svg xmlns="http://www.w3.org/2000/svg" version="1.1" xmlns:xlink="http://www.w3.org/1999/xlink" xmlns:svgjs="http://svgjs.com/svgjs" viewBox="0 0 140 140" width="140" height="140"><g transform="matrix(5.833333333333333,0,0,5.833333333333333,0,0)"><path d="M0.740 0.750 L23.240 0.750 L23.240 23.250 L0.740 23.250 Z" fill="none" stroke="#ffffff" stroke-linecap="round" stroke-linejoin="round" stroke-width="1.5"></path><path d="M6.610 12.980 A5.380 5.380 0 1 0 17.370 12.980 A5.380 5.380 0 1 0 6.610 12.980 Z" fill="none" stroke="#ffffff" stroke-linecap="round" stroke-linejoin="round" stroke-width="1.5"></path><path d="M9.490 12.980 A2.500 2.500 0 1 0 14.490 12.980 A2.500 2.500 0 1 0 9.490 12.980 Z" fill="none" stroke="#ffffff" stroke-linecap="round" stroke-linejoin="round" stroke-width="1.5"></path><path d="M0.74 10.53L7.2 10.53" fill="none" stroke="#ffffff" stroke-linecap="round" stroke-linejoin="round" stroke-width="1.5"></path><path d="M16.79 10.53L23.24 10.53" fill="none" stroke="#ffffff" stroke-linecap="round" stroke-linejoin="round" stroke-width="1.5"></path><path d="M17.240 4.250 L19.740 4.250 L19.740 6.750 L17.240 6.750 Z" fill="none" stroke="#ffffff" stroke-linecap="round" stroke-linejoin="round" stroke-width="1.5"></path><path d="M5.61 0.86L5.61 4.79" fill="none" stroke="#ffffff" stroke-linecap="round" stroke-linejoin="round" stroke-width="1.5"></path><path d="M8.27 0.75L8.27 4.79" fill="none" stroke="#ffffff" stroke-linecap="round" stroke-linejoin="round" stroke-width="1.5"></path><path d="M10.93 0.75L10.93 4.79" fill="none" stroke="#ffffff" stroke-linecap="round" stroke-linejoin="round" stroke-width="1.5"></path></g></svg>