<svg xmlns="http://www.w3.org/2000/svg" version="1.1" xmlns:xlink="http://www.w3.org/1999/xlink" xmlns:svgjs="http://svgjs.com/svgjs" viewBox="0 0 140 140" width="140" height="140"><g transform="matrix(5.833333333333333,0,0,5.833333333333333,0,0)"><path d="M5.975,12.151a1.046,1.046,0,0,0,1.551,0l.5-.556a1.045,1.045,0,0,1,1.819.754l-.039.747a1.046,1.046,0,0,0,1.1,1.1l.747-.038a1.045,1.045,0,0,1,.754,1.819l-.556.5a1.046,1.046,0,0,0,0,1.551l.556.5a1.045,1.045,0,0,1-.754,1.819l-.747-.039a1.046,1.046,0,0,0-1.1,1.1l.039.747a1.045,1.045,0,0,1-1.819.754l-.5-.556a1.046,1.046,0,0,0-1.551,0l-.5.556a1.045,1.045,0,0,1-1.819-.754l.038-.747a1.046,1.046,0,0,0-1.1-1.1l-.747.039A1.045,1.045,0,0,1,1.1,18.528l.556-.5a1.046,1.046,0,0,0,0-1.551l-.556-.5a1.045,1.045,0,0,1,.754-1.819l.747.038a1.046,1.046,0,0,0,1.1-1.1l-.038-.747A1.045,1.045,0,0,1,5.474,11.6Z" fill="none" stroke="#ffffff" stroke-linecap="round" stroke-linejoin="round" stroke-width="1.5"></path><path d="M5.251 17.251 A1.500 1.500 0 1 0 8.251 17.251 A1.500 1.500 0 1 0 5.251 17.251 Z" fill="none" stroke="#ffffff" stroke-linecap="round" stroke-linejoin="round" stroke-width="1.5"></path><path d="M16.475,1.651a1.046,1.046,0,0,0,1.551,0l.5-.556a1.045,1.045,0,0,1,1.819.754l-.039.747a1.046,1.046,0,0,0,1.1,1.1l.747-.038a1.045,1.045,0,0,1,.754,1.819l-.556.5a1.046,1.046,0,0,0,0,1.551l.556.5a1.045,1.045,0,0,1-.754,1.819l-.747-.039a1.046,1.046,0,0,0-1.1,1.1l.039.747a1.045,1.045,0,0,1-1.819.754l-.5-.556a1.046,1.046,0,0,0-1.551,0l-.5.556a1.045,1.045,0,0,1-1.819-.754l.038-.747a1.046,1.046,0,0,0-1.1-1.1l-.747.039A1.045,1.045,0,0,1,11.6,8.028l.556-.5a1.046,1.046,0,0,0,0-1.551l-.556-.5a1.045,1.045,0,0,1,.754-1.819l.747.038a1.046,1.046,0,0,0,1.1-1.1l-.038-.747A1.045,1.045,0,0,1,15.974,1.1Z" fill="none" stroke="#ffffff" stroke-linecap="round" stroke-linejoin="round" stroke-width="1.5"></path><path d="M15.751 6.751 A1.500 1.500 0 1 0 18.751 6.751 A1.500 1.500 0 1 0 15.751 6.751 Z" fill="none" stroke="#ffffff" stroke-linecap="round" stroke-linejoin="round" stroke-width="1.5"></path></g></svg>